<svg xmlns="http://www.w3.org/2000/svg" xmlns:xlink="http://www.w3.org/1999/xlink" width="500" zoomAndPan="magnify" viewBox="0 0 375 149.999998" height="200" preserveAspectRatio="xMidYMid meet" version="1.0"><defs><g/></defs><g fill="#ff5757" fill-opacity="1"><g transform="translate(27.568361, 110.624996)"><g><path d="M 45.285156 -64.464844 L 25.414062 -64.464844 C 21.640625 -64.386719 19.484375 -61.382812 19.484375 -58.535156 C 19.484375 -55.992188 21.179688 -53.605469 25.109375 -53.605469 L 33.195312 -53.605469 L 21.027344 -17.867188 C 18.945312 -11.859375 15.867188 -9.933594 12.246094 -9.933594 C 10.78125 -9.933594 9.703125 -11.550781 9.703125 -12.246094 C 9.78125 -12.554688 9.78125 -12.9375 9.78125 -13.246094 C 9.78125 -16.25 6.929688 -18.097656 4.082031 -18.097656 C 1.230469 -18.097656 -1.695312 -16.25 -1.695312 -11.785156 C -1.695312 -4.699219 4.929688 0.925781 13.402344 0.925781 C 19.871094 0.925781 28.496094 -2.695312 32.578125 -14.480469 L 48.984375 -62.230469 C 49.367188 -63.308594 48.675781 -64.464844 47.441406 -64.464844 Z M 45.285156 -64.464844 "/></g></g></g><g fill="#ff5757" fill-opacity="1"><g transform="translate(67.23144, 110.624996)"><g><path d="M 32.578125 -16.097656 C 32.578125 -16.019531 32.578125 -17.25 32.269531 -18.714844 C 32.808594 -19.101562 33.347656 -19.714844 33.8125 -20.410156 C 35.121094 -22.335938 37.429688 -29.035156 37.429688 -32.117188 C 37.429688 -39.972656 30.960938 -45.210938 22.644531 -45.210938 C 15.402344 -45.210938 8.550781 -41.203125 6.085938 -34.351562 L 0.460938 -18.484375 C -0.230469 -16.558594 -0.539062 -14.632812 -0.539062 -12.9375 C -0.539062 -4.851562 6.390625 0 14.25 0 C 20.253906 0 25.722656 -1.925781 28.957031 -7.46875 C 30.34375 -7.085938 31.960938 -6.855469 33.578125 -6.855469 C 42.667969 -6.855469 49.832031 -13.324219 52.449219 -21.410156 C 52.679688 -22.257812 52.835938 -23.027344 52.835938 -23.722656 C 52.835938 -26.570312 50.753906 -28.1875 48.519531 -28.1875 C 46.441406 -28.1875 44.285156 -26.957031 43.4375 -24.105469 C 41.742188 -19.332031 38.199219 -16.019531 33.65625 -16.019531 C 33.347656 -16.019531 32.886719 -16.019531 32.578125 -16.097656 Z M 25.414062 -27.957031 C 25.183594 -27.265625 24.953125 -26.648438 24.875 -26.03125 C 20.640625 -26.492188 16.867188 -23.027344 16.867188 -18.40625 C 16.945312 -15.789062 18.253906 -14.402344 19.714844 -13.171875 C 18.714844 -10.472656 16.480469 -9.164062 14.09375 -9.164062 C 11.089844 -9.164062 10.320312 -11.011719 10.320312 -12.863281 C 10.320312 -14.324219 10.707031 -15.710938 11.011719 -16.480469 L 16.480469 -32.117188 C 17.40625 -34.65625 20.101562 -36.121094 22.488281 -36.121094 C 24.875 -36.121094 26.417969 -34.503906 26.417969 -32.734375 C 26.417969 -31.347656 25.953125 -29.574219 25.414062 -27.957031 Z M 25.414062 -27.957031 "/></g></g></g><g fill="#ff5757" fill-opacity="1"><g transform="translate(107.433629, 110.624996)"><g><path d="M 41.820312 -24.492188 C 40.203125 -20.023438 36.738281 -17.25 32.65625 -17.25 L 32.269531 -17.25 L 35.734375 -26.648438 C 36.507812 -28.726562 36.890625 -30.808594 36.890625 -32.65625 C 36.890625 -40.203125 31.191406 -45.210938 24.414062 -45.210938 C 23.105469 -45.210938 21.949219 -45.054688 20.71875 -44.671875 L 25.722656 -59.074219 C 26.03125 -60.074219 26.261719 -60.921875 26.261719 -61.769531 C 26.261719 -65.003906 23.644531 -66.851562 20.949219 -66.851562 C 18.5625 -66.851562 16.25 -65.386719 15.171875 -62.230469 C 9.628906 -46.054688 4.929688 -33.117188 0 -18.792969 C -0.691406 -16.867188 -1.078125 -14.632812 -1.078125 -12.863281 C -1.078125 -4.46875 5.851562 0 13.554688 0 C 19.175781 0 25.414062 -2.15625 28.726562 -8.316406 C 29.652344 -8.164062 30.652344 -8.085938 31.652344 -8.085938 C 39.816406 -8.085938 48.058594 -12.9375 50.832031 -21.71875 C 50.984375 -22.179688 51.0625 -22.566406 51.0625 -22.953125 C 51.0625 -25.492188 48.367188 -27.109375 45.824219 -27.109375 C 44.132812 -27.109375 42.4375 -26.339844 41.820312 -24.492188 Z M 18.945312 -13.246094 L 18.792969 -12.632812 C 17.867188 -10.089844 15.558594 -9.164062 13.554688 -9.164062 C 11.320312 -9.164062 9.859375 -10.398438 9.859375 -12.554688 C 9.859375 -13.246094 9.933594 -14.015625 10.242188 -14.863281 C 12.324219 -20.640625 14.015625 -25.492188 16.019531 -31.347656 C 17.558594 -34.195312 20.023438 -36.121094 22.257812 -36.121094 C 24.261719 -36.121094 25.648438 -34.8125 25.648438 -32.886719 C 25.648438 -32.347656 25.570312 -31.730469 25.339844 -31.113281 L 23.722656 -26.492188 C 23.257812 -26.648438 23.796875 -26.492188 23.257812 -26.492188 C 19.484375 -26.492188 16.480469 -23.414062 16.480469 -19.484375 C 16.480469 -17.25 17.328125 -15.09375 18.945312 -13.246094 Z M 18.945312 -13.246094 "/></g></g></g><g fill="#ff5757" fill-opacity="1"><g transform="translate(145.864455, 110.624996)"><g/></g></g><g fill="#2b2b2b" fill-opacity="1"><g transform="translate(175.294919, 110.624996)"><g><path d="M 54.144531 -22.875 C 52.527344 -18.097656 49.445312 -14.941406 45.210938 -14.941406 L 45.132812 -14.941406 C 46.828125 -17.867188 47.980469 -21.640625 47.980469 -25.570312 C 47.980469 -29.652344 46.671875 -33.886719 43.4375 -37.351562 C 48.597656 -40.820312 52.140625 -47.597656 52.140625 -53.527344 C 52.140625 -61.382812 46.210938 -66.082031 39.511719 -66.773438 C 38.816406 -66.851562 37.96875 -66.929688 36.890625 -66.929688 C 34.734375 -66.929688 31.886719 -66.621094 28.957031 -65.15625 C 28.957031 -67.699219 26.648438 -69.238281 24.03125 -69.238281 C 21.410156 -69.238281 18.484375 -67.621094 17.40625 -64.078125 L -2.773438 -7.007812 C -3.15625 -6.007812 -3.3125 -5.007812 -3.3125 -4.234375 C -3.3125 -1.078125 -0.925781 0.769531 1.695312 0.769531 C 4.390625 0.769531 7.394531 -1.15625 8.164062 -5.390625 C 10.859375 -1.539062 16.789062 0.847656 22.875 0.847656 C 28.726562 0.847656 34.964844 -1.15625 39.585938 -5.929688 C 41.050781 -5.46875 42.589844 -5.238281 44.4375 -5.238281 C 53.449219 -5.238281 60.691406 -11.476562 63.386719 -20.871094 C 63.460938 -21.257812 63.539062 -21.640625 63.539062 -21.949219 C 63.539062 -24.492188 61.074219 -25.953125 58.609375 -25.953125 C 56.683594 -25.953125 54.757812 -25.03125 54.144531 -22.875 Z M 26.570312 -45.210938 C 24.105469 -44.207031 21.871094 -41.050781 21.871094 -37.507812 C 21.871094 -36.8125 21.949219 -36.121094 22.105469 -35.429688 C 23.414062 -31.347656 26.878906 -30.113281 29.804688 -30.113281 C 30.960938 -30.113281 32.039062 -30.269531 32.808594 -30.574219 C 34.734375 -30.113281 35.8125 -28.417969 35.8125 -25.878906 C 35.8125 -24.570312 35.582031 -23.105469 34.964844 -21.410156 C 32.191406 -24.105469 28.035156 -26.109375 22.875 -26.1875 C 20.410156 -26.1875 17.484375 -25.800781 15.558594 -24.953125 L 24.800781 -50.523438 C 26.726562 -54.296875 31.039062 -56.144531 34.351562 -56.144531 C 37.121094 -56.144531 39.355469 -54.453125 39.355469 -51.832031 C 39.355469 -49.597656 38.277344 -45.902344 34.582031 -44.363281 C 33.8125 -44.976562 31.730469 -45.75 29.496094 -45.75 C 28.496094 -45.75 27.496094 -45.59375 26.570312 -45.210938 Z M 22.027344 -8.855469 C 19.175781 -8.855469 17.558594 -10.167969 17.558594 -11.9375 C 17.558594 -12.324219 17.558594 -12.707031 17.714844 -13.09375 C 18.332031 -15.09375 20.332031 -16.480469 23.257812 -16.480469 C 26.417969 -16.480469 28.417969 -14.789062 30.5 -12.707031 C 28.113281 -10.089844 24.800781 -8.855469 22.027344 -8.855469 Z M 22.027344 -8.855469 "/></g></g></g><g fill="#2b2b2b" fill-opacity="1"><g transform="translate(226.664388, 110.624996)"><g><path d="M 32.578125 -16.097656 C 32.578125 -16.019531 32.578125 -17.25 32.269531 -18.714844 C 32.808594 -19.101562 33.347656 -19.714844 33.8125 -20.410156 C 35.121094 -22.335938 37.429688 -29.035156 37.429688 -32.117188 C 37.429688 -39.972656 30.960938 -45.210938 22.644531 -45.210938 C 15.402344 -45.210938 8.550781 -41.203125 6.085938 -34.351562 L 0.460938 -18.484375 C -0.230469 -16.558594 -0.539062 -14.632812 -0.539062 -12.9375 C -0.539062 -4.851562 6.390625 0 14.25 0 C 20.253906 0 25.722656 -1.925781 28.957031 -7.46875 C 30.34375 -7.085938 31.960938 -6.855469 33.578125 -6.855469 C 42.667969 -6.855469 49.832031 -13.324219 52.449219 -21.410156 C 52.679688 -22.257812 52.835938 -23.027344 52.835938 -23.722656 C 52.835938 -26.570312 50.753906 -28.1875 48.519531 -28.1875 C 46.441406 -28.1875 44.285156 -26.957031 43.4375 -24.105469 C 41.742188 -19.332031 38.199219 -16.019531 33.65625 -16.019531 C 33.347656 -16.019531 32.886719 -16.019531 32.578125 -16.097656 Z M 25.414062 -27.957031 C 25.183594 -27.265625 24.953125 -26.648438 24.875 -26.03125 C 20.640625 -26.492188 16.867188 -23.027344 16.867188 -18.40625 C 16.945312 -15.789062 18.253906 -14.402344 19.714844 -13.171875 C 18.714844 -10.472656 16.480469 -9.164062 14.09375 -9.164062 C 11.089844 -9.164062 10.320312 -11.011719 10.320312 -12.863281 C 10.320312 -14.324219 10.707031 -15.710938 11.011719 -16.480469 L 16.480469 -32.117188 C 17.40625 -34.65625 20.101562 -36.121094 22.488281 -36.121094 C 24.875 -36.121094 26.417969 -34.503906 26.417969 -32.734375 C 26.417969 -31.347656 25.953125 -29.574219 25.414062 -27.957031 Z M 25.414062 -27.957031 "/></g></g></g><g fill="#2b2b2b" fill-opacity="1"><g transform="translate(266.866576, 110.624996)"><g><path d="M 32.578125 -16.097656 C 32.578125 -16.019531 32.578125 -17.25 32.269531 -18.714844 C 32.808594 -19.101562 33.347656 -19.714844 33.8125 -20.410156 C 35.121094 -22.335938 37.429688 -29.035156 37.429688 -32.117188 C 37.429688 -39.972656 30.960938 -45.210938 22.644531 -45.210938 C 15.402344 -45.210938 8.550781 -41.203125 6.085938 -34.351562 L 0.460938 -18.484375 C -0.230469 -16.558594 -0.539062 -14.632812 -0.539062 -12.9375 C -0.539062 -4.851562 6.390625 0 14.25 0 C 20.253906 0 25.722656 -1.925781 28.957031 -7.46875 C 30.34375 -7.085938 31.960938 -6.855469 33.578125 -6.855469 C 42.667969 -6.855469 49.832031 -13.324219 52.449219 -21.410156 C 52.679688 -22.257812 52.835938 -23.027344 52.835938 -23.722656 C 52.835938 -26.570312 50.753906 -28.1875 48.519531 -28.1875 C 46.441406 -28.1875 44.285156 -26.957031 43.4375 -24.105469 C 41.742188 -19.332031 38.199219 -16.019531 33.65625 -16.019531 C 33.347656 -16.019531 32.886719 -16.019531 32.578125 -16.097656 Z M 25.414062 -27.957031 C 25.183594 -27.265625 24.953125 -26.648438 24.875 -26.03125 C 20.640625 -26.492188 16.867188 -23.027344 16.867188 -18.40625 C 16.945312 -15.789062 18.253906 -14.402344 19.714844 -13.171875 C 18.714844 -10.472656 16.480469 -9.164062 14.09375 -9.164062 C 11.089844 -9.164062 10.320312 -11.011719 10.320312 -12.863281 C 10.320312 -14.324219 10.707031 -15.710938 11.011719 -16.480469 L 16.480469 -32.117188 C 17.40625 -34.65625 20.101562 -36.121094 22.488281 -36.121094 C 24.875 -36.121094 26.417969 -34.503906 26.417969 -32.734375 C 26.417969 -31.347656 25.953125 -29.574219 25.414062 -27.957031 Z M 25.414062 -27.957031 "/></g></g></g><g fill="#2b2b2b" fill-opacity="1"><g transform="translate(307.068765, 110.624996)"><g><path d="M 42.667969 -21.488281 C 39.972656 -13.710938 36.042969 -9.164062 32.191406 -9.164062 C 31.113281 -9.164062 30.730469 -9.78125 30.730469 -10.472656 C 30.730469 -11.089844 30.882812 -11.859375 31.113281 -12.554688 C 32.269531 -16.171875 32.65625 -17.097656 32.65625 -19.023438 C 32.65625 -20.871094 32.191406 -22.488281 31.113281 -23.644531 C 33.273438 -24.875 35.273438 -26.800781 36.429688 -29.882812 C 36.890625 -31.191406 37.199219 -32.65625 37.199219 -34.042969 C 37.199219 -39.972656 32.5 -45.210938 25.800781 -45.210938 C 24.335938 -45.210938 23.183594 -45.132812 21.796875 -44.671875 L 26.570312 -58.457031 C 26.957031 -59.535156 27.265625 -60.535156 27.265625 -61.460938 C 27.265625 -64.847656 24.722656 -66.851562 22.027344 -66.851562 C 19.484375 -66.851562 17.328125 -65.15625 16.019531 -61.460938 L -3.234375 -5.851562 C -3.390625 -5.238281 -3.464844 -4.773438 -3.464844 -4.234375 C -3.464844 -1.464844 -1.078125 0 1.539062 0 C 4.3125 0 7.238281 -1.617188 8.242188 -4.699219 L 12.9375 -19.410156 C 14.554688 -17.867188 16.171875 -17.40625 17.558594 -17.40625 C 19.101562 -17.40625 20.332031 -17.945312 21.027344 -18.253906 C 21.566406 -18.484375 20.792969 -16.867188 20.488281 -16.097656 C 19.714844 -14.015625 19.332031 -11.9375 19.332031 -10.011719 C 19.332031 -4.082031 23.027344 0 30.574219 0 C 40.972656 0 48.289062 -8.011719 52.140625 -19.949219 C 52.292969 -20.410156 52.371094 -20.792969 52.371094 -21.179688 C 52.371094 -23.492188 49.984375 -24.875 47.597656 -24.875 C 45.515625 -24.875 43.359375 -23.875 42.667969 -21.488281 Z M 15.941406 -27.957031 L 17.328125 -31.886719 C 18.714844 -34.65625 21.101562 -36.121094 23.335938 -36.121094 C 25.261719 -36.121094 26.726562 -35.121094 26.726562 -33.425781 C 26.726562 -32.964844 26.648438 -32.5 26.417969 -31.960938 C 25.722656 -30.191406 24.105469 -28.957031 22.257812 -28.417969 C 21.332031 -28.574219 20.488281 -28.726562 19.640625 -28.726562 C 18.097656 -28.726562 16.789062 -28.417969 15.941406 -27.957031 Z M 15.941406 -27.957031 "/></g></g></g></svg>